<svg width="24" height="24" xmlns="http://www.w3.org/2000/svg">

 <g>
  <title>background</title>
  <rect fill="none" id="canvas_background" height="402" width="582" y="-1" x="-1"/>
 </g>
 <g>
  <title>Layer 1</title>
  <path fill="#ff0000" id="svg_1" d="m22.245,4.015c0.313,0.313 0.313,0.826 0,1.139l-6.276,6.27c-0.313,0.312 -0.313,0.826 0,1.14l6.273,6.272c0.313,0.313 0.313,0.826 0,1.14l-2.285,2.277c-0.314,0.312 -0.828,0.312 -1.142,0l-6.271,-6.271c-0.313,-0.313 -0.828,-0.313 -1.141,0l-6.276,6.267c-0.313,0.313 -0.828,0.313 -1.141,0l-2.282,-2.28c-0.313,-0.313 -0.313,-0.826 0,-1.14l6.278,-6.269c0.313,-0.312 0.313,-0.826 0,-1.14l-6.273,-6.273c-0.314,-0.313 -0.314,-0.827 0,-1.14l2.284,-2.278c0.315,-0.312 0.828,-0.312 1.142,0.001l6.27,6.27c0.314,0.314 0.828,0.314 1.141,0.001l6.276,-6.267c0.312,-0.312 0.826,-0.312 1.141,0l2.282,2.281z"/>
 </g>
</svg>